<svg width="16" height="20" viewBox="0 0 16 20" fill="none" xmlns="http://www.w3.org/2000/svg">
<path d="M11.75 4.75H11C11 6.54493 9.54493 8 7.75 8V8.75V9.5C10.3734 9.5 12.5 7.37335 12.5 4.75H11.75ZM7.75 8.75V8C5.95507 8 4.5 6.54493 4.5 4.75H3.75H3C3 7.37335 5.12665 9.5 7.75 9.5V8.75ZM3.75 4.75H4.5C4.5 2.95507 5.95507 1.5 7.75 1.5V0.75V0C5.12665 0 3 2.12665 3 4.75H3.75ZM7.75 0.75V1.5C9.54493 1.5 11 2.95507 11 4.75H11.75H12.5C12.5 2.12665 10.3734 0 7.75 0V0.75ZM14.75 15.25H14C14 15.7794 13.5514 16.4605 12.3643 17.0541C11.2222 17.6251 9.59181 18 7.75 18V18.75V19.5C9.77418 19.5 11.6438 19.0914 13.0352 18.3957C14.3816 17.7225 15.5 16.6536 15.5 15.25H14.75ZM7.75 18.75V18C5.90819 18 4.27782 17.6251 3.13566 17.0541C1.94864 16.4605 1.5 15.7794 1.5 15.25H0.75H0C0 16.6536 1.11836 17.7225 2.46484 18.3957C3.85618 19.0914 5.72582 19.5 7.75 19.5V18.75ZM0.75 15.25H1.5C1.5 14.7206 1.94864 14.0395 3.13566 13.4459C4.27782 12.8749 5.90819 12.5 7.75 12.5V11.75V11C5.72582 11 3.85618 11.4086 2.46484 12.1043C1.11836 12.7775 0 13.8464 0 15.25H0.75ZM7.75 11.75V12.5C9.59181 12.5 11.2222 12.8749 12.3643 13.4459C13.5514 14.0395 14 14.7206 14 15.25H14.75H15.5C15.5 13.8464 14.3816 12.7775 13.0352 12.1043C11.6438 11.4086 9.77418 11 7.75 11V11.75Z" fill="#020202"/>
</svg>
